<?xml version="1.0" encoding="utf-8" standalone="no"?>
<!DOCTYPE svg PUBLIC "-//W3C//DTD SVG 1.1//EN"
  "http://www.w3.org/Graphics/SVG/1.1/DTD/svg11.dtd">
<svg xmlns:xlink="http://www.w3.org/1999/xlink" width="460.8pt" height="345.6pt" viewBox="0 0 460.8 345.6" xmlns="http://www.w3.org/2000/svg" version="1.1">
 <metadata>
  <rdf:RDF xmlns:dc="http://purl.org/dc/elements/1.1/" xmlns:cc="http://creativecommons.org/ns#" xmlns:rdf="http://www.w3.org/1999/02/22-rdf-syntax-ns#">
   <cc:Work>
    <dc:type rdf:resource="http://purl.org/dc/dcmitype/StillImage"/>
    <dc:date>2024-10-24T15:35:31.387671</dc:date>
    <dc:format>image/svg+xml</dc:format>
    <dc:creator>
     <cc:Agent>
      <dc:title>Matplotlib v3.8.4, https://matplotlib.org/</dc:title>
     </cc:Agent>
    </dc:creator>
   </cc:Work>
  </rdf:RDF>
 </metadata>
 <defs>
  <style type="text/css">*{stroke-linejoin: round; stroke-linecap: butt}</style>
 </defs>
 <g id="figure_1">
  <g id="patch_1">
   <path d="M 0 345.6 
L 460.8 345.6 
L 460.8 0 
L 0 0 
z
" style="fill: #ffffff"/>
  </g>
  <g id="axes_1">
   <g id="patch_2">
    <path d="M 57.6 307.584 
L 414.72 307.584 
L 414.72 41.472 
L 57.6 41.472 
z
" style="fill: #ffffff"/>
   </g>
   <g id="matplotlib.axis_1">
    <g id="xtick_1">
     <g id="line2d_1">
      <defs>
       <path id="mb9ffdf5925" d="M 0 0 
L 0 3.5 
" style="stroke: #000000; stroke-width: 0.8"/>
      </defs>
      <g>
       <use xlink:href="#mb9ffdf5925" x="89.257244" y="307.584" style="stroke: #000000; stroke-width: 0.8"/>
      </g>
     </g>
     <g id="text_1">
      <!-- −0.8 -->
      <g transform="translate(77.115837 322.182437) scale(0.1 -0.1)">
       <defs>
        <path id="DejaVuSans-2212" d="M 678 2272 
L 4684 2272 
L 4684 1741 
L 678 1741 
L 678 2272 
z
" transform="scale(0.015625)"/>
        <path id="DejaVuSans-30" d="M 2034 4250 
Q 1547 4250 1301 3770 
Q 1056 3291 1056 2328 
Q 1056 1369 1301 889 
Q 1547 409 2034 409 
Q 2525 409 2770 889 
Q 3016 1369 3016 2328 
Q 3016 3291 2770 3770 
Q 2525 4250 2034 4250 
z
M 2034 4750 
Q 2819 4750 3233 4129 
Q 3647 3509 3647 2328 
Q 3647 1150 3233 529 
Q 2819 -91 2034 -91 
Q 1250 -91 836 529 
Q 422 1150 422 2328 
Q 422 3509 836 4129 
Q 1250 4750 2034 4750 
z
" transform="scale(0.015625)"/>
        <path id="DejaVuSans-2e" d="M 684 794 
L 1344 794 
L 1344 0 
L 684 0 
L 684 794 
z
" transform="scale(0.015625)"/>
        <path id="DejaVuSans-38" d="M 2034 2216 
Q 1584 2216 1326 1975 
Q 1069 1734 1069 1313 
Q 1069 891 1326 650 
Q 1584 409 2034 409 
Q 2484 409 2743 651 
Q 3003 894 3003 1313 
Q 3003 1734 2745 1975 
Q 2488 2216 2034 2216 
z
M 1403 2484 
Q 997 2584 770 2862 
Q 544 3141 544 3541 
Q 544 4100 942 4425 
Q 1341 4750 2034 4750 
Q 2731 4750 3128 4425 
Q 3525 4100 3525 3541 
Q 3525 3141 3298 2862 
Q 3072 2584 2669 2484 
Q 3125 2378 3379 2068 
Q 3634 1759 3634 1313 
Q 3634 634 3220 271 
Q 2806 -91 2034 -91 
Q 1263 -91 848 271 
Q 434 634 434 1313 
Q 434 1759 690 2068 
Q 947 2378 1403 2484 
z
M 1172 3481 
Q 1172 3119 1398 2916 
Q 1625 2713 2034 2713 
Q 2441 2713 2670 2916 
Q 2900 3119 2900 3481 
Q 2900 3844 2670 4047 
Q 2441 4250 2034 4250 
Q 1625 4250 1398 4047 
Q 1172 3844 1172 3481 
z
" transform="scale(0.015625)"/>
       </defs>
       <use xlink:href="#DejaVuSans-2212"/>
       <use xlink:href="#DejaVuSans-30" x="83.789062"/>
       <use xlink:href="#DejaVuSans-2e" x="147.412109"/>
       <use xlink:href="#DejaVuSans-38" x="179.199219"/>
      </g>
     </g>
    </g>
    <g id="xtick_2">
     <g id="line2d_2">
      <g>
       <use xlink:href="#mb9ffdf5925" x="144.108356" y="307.584" style="stroke: #000000; stroke-width: 0.8"/>
      </g>
     </g>
     <g id="text_2">
      <!-- −0.6 -->
      <g transform="translate(131.96695 322.182437) scale(0.1 -0.1)">
       <defs>
        <path id="DejaVuSans-36" d="M 2113 2584 
Q 1688 2584 1439 2293 
Q 1191 2003 1191 1497 
Q 1191 994 1439 701 
Q 1688 409 2113 409 
Q 2538 409 2786 701 
Q 3034 994 3034 1497 
Q 3034 2003 2786 2293 
Q 2538 2584 2113 2584 
z
M 3366 4563 
L 3366 3988 
Q 3128 4100 2886 4159 
Q 2644 4219 2406 4219 
Q 1781 4219 1451 3797 
Q 1122 3375 1075 2522 
Q 1259 2794 1537 2939 
Q 1816 3084 2150 3084 
Q 2853 3084 3261 2657 
Q 3669 2231 3669 1497 
Q 3669 778 3244 343 
Q 2819 -91 2113 -91 
Q 1303 -91 875 529 
Q 447 1150 447 2328 
Q 447 3434 972 4092 
Q 1497 4750 2381 4750 
Q 2619 4750 2861 4703 
Q 3103 4656 3366 4563 
z
" transform="scale(0.015625)"/>
       </defs>
       <use xlink:href="#DejaVuSans-2212"/>
       <use xlink:href="#DejaVuSans-30" x="83.789062"/>
       <use xlink:href="#DejaVuSans-2e" x="147.412109"/>
       <use xlink:href="#DejaVuSans-36" x="179.199219"/>
      </g>
     </g>
    </g>
    <g id="xtick_3">
     <g id="line2d_3">
      <g>
       <use xlink:href="#mb9ffdf5925" x="198.959468" y="307.584" style="stroke: #000000; stroke-width: 0.8"/>
      </g>
     </g>
     <g id="text_3">
      <!-- −0.4 -->
      <g transform="translate(186.818062 322.182437) scale(0.1 -0.1)">
       <defs>
        <path id="DejaVuSans-34" d="M 2419 4116 
L 825 1625 
L 2419 1625 
L 2419 4116 
z
M 2253 4666 
L 3047 4666 
L 3047 1625 
L 3713 1625 
L 3713 1100 
L 3047 1100 
L 3047 0 
L 2419 0 
L 2419 1100 
L 313 1100 
L 313 1709 
L 2253 4666 
z
" transform="scale(0.015625)"/>
       </defs>
       <use xlink:href="#DejaVuSans-2212"/>
       <use xlink:href="#DejaVuSans-30" x="83.789062"/>
       <use xlink:href="#DejaVuSans-2e" x="147.412109"/>
       <use xlink:href="#DejaVuSans-34" x="179.199219"/>
      </g>
     </g>
    </g>
    <g id="xtick_4">
     <g id="line2d_4">
      <g>
       <use xlink:href="#mb9ffdf5925" x="253.810581" y="307.584" style="stroke: #000000; stroke-width: 0.8"/>
      </g>
     </g>
     <g id="text_4">
      <!-- −0.2 -->
      <g transform="translate(241.669174 322.182437) scale(0.1 -0.1)">
       <defs>
        <path id="DejaVuSans-32" d="M 1228 531 
L 3431 531 
L 3431 0 
L 469 0 
L 469 531 
Q 828 903 1448 1529 
Q 2069 2156 2228 2338 
Q 2531 2678 2651 2914 
Q 2772 3150 2772 3378 
Q 2772 3750 2511 3984 
Q 2250 4219 1831 4219 
Q 1534 4219 1204 4116 
Q 875 4013 500 3803 
L 500 4441 
Q 881 4594 1212 4672 
Q 1544 4750 1819 4750 
Q 2544 4750 2975 4387 
Q 3406 4025 3406 3419 
Q 3406 3131 3298 2873 
Q 3191 2616 2906 2266 
Q 2828 2175 2409 1742 
Q 1991 1309 1228 531 
z
" transform="scale(0.015625)"/>
       </defs>
       <use xlink:href="#DejaVuSans-2212"/>
       <use xlink:href="#DejaVuSans-30" x="83.789062"/>
       <use xlink:href="#DejaVuSans-2e" x="147.412109"/>
       <use xlink:href="#DejaVuSans-32" x="179.199219"/>
      </g>
     </g>
    </g>
    <g id="xtick_5">
     <g id="line2d_5">
      <g>
       <use xlink:href="#mb9ffdf5925" x="308.661693" y="307.584" style="stroke: #000000; stroke-width: 0.8"/>
      </g>
     </g>
     <g id="text_5">
      <!-- 0.0 -->
      <g transform="translate(300.710131 322.182437) scale(0.1 -0.1)">
       <use xlink:href="#DejaVuSans-30"/>
       <use xlink:href="#DejaVuSans-2e" x="63.623047"/>
       <use xlink:href="#DejaVuSans-30" x="95.410156"/>
      </g>
     </g>
    </g>
    <g id="xtick_6">
     <g id="line2d_6">
      <g>
       <use xlink:href="#mb9ffdf5925" x="363.512805" y="307.584" style="stroke: #000000; stroke-width: 0.8"/>
      </g>
     </g>
     <g id="text_6">
      <!-- 0.2 -->
      <g transform="translate(355.561243 322.182437) scale(0.1 -0.1)">
       <use xlink:href="#DejaVuSans-30"/>
       <use xlink:href="#DejaVuSans-2e" x="63.623047"/>
       <use xlink:href="#DejaVuSans-32" x="95.410156"/>
      </g>
     </g>
    </g>
    <g id="text_7">
     <!-- X coordinate -->
     <g transform="translate(204.477187 335.860562) scale(0.1 -0.1)">
      <defs>
       <path id="DejaVuSans-58" d="M 403 4666 
L 1081 4666 
L 2241 2931 
L 3406 4666 
L 4084 4666 
L 2584 2425 
L 4184 0 
L 3506 0 
L 2194 1984 
L 872 0 
L 191 0 
L 1856 2491 
L 403 4666 
z
" transform="scale(0.015625)"/>
       <path id="DejaVuSans-20" transform="scale(0.015625)"/>
       <path id="DejaVuSans-63" d="M 3122 3366 
L 3122 2828 
Q 2878 2963 2633 3030 
Q 2388 3097 2138 3097 
Q 1578 3097 1268 2742 
Q 959 2388 959 1747 
Q 959 1106 1268 751 
Q 1578 397 2138 397 
Q 2388 397 2633 464 
Q 2878 531 3122 666 
L 3122 134 
Q 2881 22 2623 -34 
Q 2366 -91 2075 -91 
Q 1284 -91 818 406 
Q 353 903 353 1747 
Q 353 2603 823 3093 
Q 1294 3584 2113 3584 
Q 2378 3584 2631 3529 
Q 2884 3475 3122 3366 
z
" transform="scale(0.015625)"/>
       <path id="DejaVuSans-6f" d="M 1959 3097 
Q 1497 3097 1228 2736 
Q 959 2375 959 1747 
Q 959 1119 1226 758 
Q 1494 397 1959 397 
Q 2419 397 2687 759 
Q 2956 1122 2956 1747 
Q 2956 2369 2687 2733 
Q 2419 3097 1959 3097 
z
M 1959 3584 
Q 2709 3584 3137 3096 
Q 3566 2609 3566 1747 
Q 3566 888 3137 398 
Q 2709 -91 1959 -91 
Q 1206 -91 779 398 
Q 353 888 353 1747 
Q 353 2609 779 3096 
Q 1206 3584 1959 3584 
z
" transform="scale(0.015625)"/>
       <path id="DejaVuSans-72" d="M 2631 2963 
Q 2534 3019 2420 3045 
Q 2306 3072 2169 3072 
Q 1681 3072 1420 2755 
Q 1159 2438 1159 1844 
L 1159 0 
L 581 0 
L 581 3500 
L 1159 3500 
L 1159 2956 
Q 1341 3275 1631 3429 
Q 1922 3584 2338 3584 
Q 2397 3584 2469 3576 
Q 2541 3569 2628 3553 
L 2631 2963 
z
" transform="scale(0.015625)"/>
       <path id="DejaVuSans-64" d="M 2906 2969 
L 2906 4863 
L 3481 4863 
L 3481 0 
L 2906 0 
L 2906 525 
Q 2725 213 2448 61 
Q 2172 -91 1784 -91 
Q 1150 -91 751 415 
Q 353 922 353 1747 
Q 353 2572 751 3078 
Q 1150 3584 1784 3584 
Q 2172 3584 2448 3432 
Q 2725 3281 2906 2969 
z
M 947 1747 
Q 947 1113 1208 752 
Q 1469 391 1925 391 
Q 2381 391 2643 752 
Q 2906 1113 2906 1747 
Q 2906 2381 2643 2742 
Q 2381 3103 1925 3103 
Q 1469 3103 1208 2742 
Q 947 2381 947 1747 
z
" transform="scale(0.015625)"/>
       <path id="DejaVuSans-69" d="M 603 3500 
L 1178 3500 
L 1178 0 
L 603 0 
L 603 3500 
z
M 603 4863 
L 1178 4863 
L 1178 4134 
L 603 4134 
L 603 4863 
z
" transform="scale(0.015625)"/>
       <path id="DejaVuSans-6e" d="M 3513 2113 
L 3513 0 
L 2938 0 
L 2938 2094 
Q 2938 2591 2744 2837 
Q 2550 3084 2163 3084 
Q 1697 3084 1428 2787 
Q 1159 2491 1159 1978 
L 1159 0 
L 581 0 
L 581 3500 
L 1159 3500 
L 1159 2956 
Q 1366 3272 1645 3428 
Q 1925 3584 2291 3584 
Q 2894 3584 3203 3211 
Q 3513 2838 3513 2113 
z
" transform="scale(0.015625)"/>
       <path id="DejaVuSans-61" d="M 2194 1759 
Q 1497 1759 1228 1600 
Q 959 1441 959 1056 
Q 959 750 1161 570 
Q 1363 391 1709 391 
Q 2188 391 2477 730 
Q 2766 1069 2766 1631 
L 2766 1759 
L 2194 1759 
z
M 3341 1997 
L 3341 0 
L 2766 0 
L 2766 531 
Q 2569 213 2275 61 
Q 1981 -91 1556 -91 
Q 1019 -91 701 211 
Q 384 513 384 1019 
Q 384 1609 779 1909 
Q 1175 2209 1959 2209 
L 2766 2209 
L 2766 2266 
Q 2766 2663 2505 2880 
Q 2244 3097 1772 3097 
Q 1472 3097 1187 3025 
Q 903 2953 641 2809 
L 641 3341 
Q 956 3463 1253 3523 
Q 1550 3584 1831 3584 
Q 2591 3584 2966 3190 
Q 3341 2797 3341 1997 
z
" transform="scale(0.015625)"/>
       <path id="DejaVuSans-74" d="M 1172 4494 
L 1172 3500 
L 2356 3500 
L 2356 3053 
L 1172 3053 
L 1172 1153 
Q 1172 725 1289 603 
Q 1406 481 1766 481 
L 2356 481 
L 2356 0 
L 1766 0 
Q 1100 0 847 248 
Q 594 497 594 1153 
L 594 3053 
L 172 3053 
L 172 3500 
L 594 3500 
L 594 4494 
L 1172 4494 
z
" transform="scale(0.015625)"/>
       <path id="DejaVuSans-65" d="M 3597 1894 
L 3597 1613 
L 953 1613 
Q 991 1019 1311 708 
Q 1631 397 2203 397 
Q 2534 397 2845 478 
Q 3156 559 3463 722 
L 3463 178 
Q 3153 47 2828 -22 
Q 2503 -91 2169 -91 
Q 1331 -91 842 396 
Q 353 884 353 1716 
Q 353 2575 817 3079 
Q 1281 3584 2069 3584 
Q 2775 3584 3186 3129 
Q 3597 2675 3597 1894 
z
M 3022 2063 
Q 3016 2534 2758 2815 
Q 2500 3097 2075 3097 
Q 1594 3097 1305 2825 
Q 1016 2553 972 2059 
L 3022 2063 
z
" transform="scale(0.015625)"/>
      </defs>
      <use xlink:href="#DejaVuSans-58"/>
      <use xlink:href="#DejaVuSans-20" x="68.505859"/>
      <use xlink:href="#DejaVuSans-63" x="100.292969"/>
      <use xlink:href="#DejaVuSans-6f" x="155.273438"/>
      <use xlink:href="#DejaVuSans-6f" x="216.455078"/>
      <use xlink:href="#DejaVuSans-72" x="277.636719"/>
      <use xlink:href="#DejaVuSans-64" x="317"/>
      <use xlink:href="#DejaVuSans-69" x="380.476562"/>
      <use xlink:href="#DejaVuSans-6e" x="408.259766"/>
      <use xlink:href="#DejaVuSans-61" x="471.638672"/>
      <use xlink:href="#DejaVuSans-74" x="532.917969"/>
      <use xlink:href="#DejaVuSans-65" x="572.126953"/>
     </g>
    </g>
   </g>
   <g id="matplotlib.axis_2">
    <g id="ytick_1">
     <g id="line2d_7">
      <defs>
       <path id="m777b300dac" d="M 0 0 
L -3.5 0 
" style="stroke: #000000; stroke-width: 0.8"/>
      </defs>
      <g>
       <use xlink:href="#m777b300dac" x="57.6" y="290.695045" style="stroke: #000000; stroke-width: 0.8"/>
      </g>
     </g>
     <g id="text_8">
      <!-- −0.4 -->
      <g transform="translate(26.317187 294.494263) scale(0.1 -0.1)">
       <use xlink:href="#DejaVuSans-2212"/>
       <use xlink:href="#DejaVuSans-30" x="83.789062"/>
       <use xlink:href="#DejaVuSans-2e" x="147.412109"/>
       <use xlink:href="#DejaVuSans-34" x="179.199219"/>
      </g>
     </g>
    </g>
    <g id="ytick_2">
     <g id="line2d_8">
      <g>
       <use xlink:href="#m777b300dac" x="57.6" y="244.915921" style="stroke: #000000; stroke-width: 0.8"/>
      </g>
     </g>
     <g id="text_9">
      <!-- −0.3 -->
      <g transform="translate(26.317187 248.71514) scale(0.1 -0.1)">
       <defs>
        <path id="DejaVuSans-33" d="M 2597 2516 
Q 3050 2419 3304 2112 
Q 3559 1806 3559 1356 
Q 3559 666 3084 287 
Q 2609 -91 1734 -91 
Q 1441 -91 1130 -33 
Q 819 25 488 141 
L 488 750 
Q 750 597 1062 519 
Q 1375 441 1716 441 
Q 2309 441 2620 675 
Q 2931 909 2931 1356 
Q 2931 1769 2642 2001 
Q 2353 2234 1838 2234 
L 1294 2234 
L 1294 2753 
L 1863 2753 
Q 2328 2753 2575 2939 
Q 2822 3125 2822 3475 
Q 2822 3834 2567 4026 
Q 2313 4219 1838 4219 
Q 1578 4219 1281 4162 
Q 984 4106 628 3988 
L 628 4550 
Q 988 4650 1302 4700 
Q 1616 4750 1894 4750 
Q 2613 4750 3031 4423 
Q 3450 4097 3450 3541 
Q 3450 3153 3228 2886 
Q 3006 2619 2597 2516 
z
" transform="scale(0.015625)"/>
       </defs>
       <use xlink:href="#DejaVuSans-2212"/>
       <use xlink:href="#DejaVuSans-30" x="83.789062"/>
       <use xlink:href="#DejaVuSans-2e" x="147.412109"/>
       <use xlink:href="#DejaVuSans-33" x="179.199219"/>
      </g>
     </g>
    </g>
    <g id="ytick_3">
     <g id="line2d_9">
      <g>
       <use xlink:href="#m777b300dac" x="57.6" y="199.136798" style="stroke: #000000; stroke-width: 0.8"/>
      </g>
     </g>
     <g id="text_10">
      <!-- −0.2 -->
      <g transform="translate(26.317187 202.936016) scale(0.1 -0.1)">
       <use xlink:href="#DejaVuSans-2212"/>
       <use xlink:href="#DejaVuSans-30" x="83.789062"/>
       <use xlink:href="#DejaVuSans-2e" x="147.412109"/>
       <use xlink:href="#DejaVuSans-32" x="179.199219"/>
      </g>
     </g>
    </g>
    <g id="ytick_4">
     <g id="line2d_10">
      <g>
       <use xlink:href="#m777b300dac" x="57.6" y="153.357674" style="stroke: #000000; stroke-width: 0.8"/>
      </g>
     </g>
     <g id="text_11">
      <!-- −0.1 -->
      <g transform="translate(26.317187 157.156893) scale(0.1 -0.1)">
       <defs>
        <path id="DejaVuSans-31" d="M 794 531 
L 1825 531 
L 1825 4091 
L 703 3866 
L 703 4441 
L 1819 4666 
L 2450 4666 
L 2450 531 
L 3481 531 
L 3481 0 
L 794 0 
L 794 531 
z
" transform="scale(0.015625)"/>
       </defs>
       <use xlink:href="#DejaVuSans-2212"/>
       <use xlink:href="#DejaVuSans-30" x="83.789062"/>
       <use xlink:href="#DejaVuSans-2e" x="147.412109"/>
       <use xlink:href="#DejaVuSans-31" x="179.199219"/>
      </g>
     </g>
    </g>
    <g id="ytick_5">
     <g id="line2d_11">
      <g>
       <use xlink:href="#m777b300dac" x="57.6" y="107.57855" style="stroke: #000000; stroke-width: 0.8"/>
      </g>
     </g>
     <g id="text_12">
      <!-- 0.0 -->
      <g transform="translate(34.696875 111.377769) scale(0.1 -0.1)">
       <use xlink:href="#DejaVuSans-30"/>
       <use xlink:href="#DejaVuSans-2e" x="63.623047"/>
       <use xlink:href="#DejaVuSans-30" x="95.410156"/>
      </g>
     </g>
    </g>
    <g id="ytick_6">
     <g id="line2d_12">
      <g>
       <use xlink:href="#m777b300dac" x="57.6" y="61.799427" style="stroke: #000000; stroke-width: 0.8"/>
      </g>
     </g>
     <g id="text_13">
      <!-- 0.1 -->
      <g transform="translate(34.696875 65.598646) scale(0.1 -0.1)">
       <use xlink:href="#DejaVuSans-30"/>
       <use xlink:href="#DejaVuSans-2e" x="63.623047"/>
       <use xlink:href="#DejaVuSans-31" x="95.410156"/>
      </g>
     </g>
    </g>
    <g id="text_14">
     <!-- Y coordinate -->
     <g transform="translate(20.2375 205.839719) rotate(-90) scale(0.1 -0.1)">
      <defs>
       <path id="DejaVuSans-59" d="M -13 4666 
L 666 4666 
L 1959 2747 
L 3244 4666 
L 3922 4666 
L 2272 2222 
L 2272 0 
L 1638 0 
L 1638 2222 
L -13 4666 
z
" transform="scale(0.015625)"/>
      </defs>
      <use xlink:href="#DejaVuSans-59"/>
      <use xlink:href="#DejaVuSans-20" x="61.083984"/>
      <use xlink:href="#DejaVuSans-63" x="92.871094"/>
      <use xlink:href="#DejaVuSans-6f" x="147.851562"/>
      <use xlink:href="#DejaVuSans-6f" x="209.033203"/>
      <use xlink:href="#DejaVuSans-72" x="270.214844"/>
      <use xlink:href="#DejaVuSans-64" x="309.578125"/>
      <use xlink:href="#DejaVuSans-69" x="373.054688"/>
      <use xlink:href="#DejaVuSans-6e" x="400.837891"/>
      <use xlink:href="#DejaVuSans-61" x="464.216797"/>
      <use xlink:href="#DejaVuSans-74" x="525.496094"/>
      <use xlink:href="#DejaVuSans-65" x="564.705078"/>
     </g>
    </g>
   </g>
   <g id="line2d_13">
    <path d="M 303.241328 111.444818 
L 311.164954 96.521237 
" clip-path="url(#p19f7860f91)" style="fill: none; stroke: #008000; stroke-width: 1.5; stroke-linecap: square"/>
    <defs>
     <path id="m74bdb8384f" d="M 0 3 
C 0.795609 3 1.55874 2.683901 2.12132 2.12132 
C 2.683901 1.55874 3 0.795609 3 0 
C 3 -0.795609 2.683901 -1.55874 2.12132 -2.12132 
C 1.55874 -2.683901 0.795609 -3 0 -3 
C -0.795609 -3 -1.55874 -2.683901 -2.12132 -2.12132 
C -2.683901 -1.55874 -3 -0.795609 -3 0 
C -3 0.795609 -2.683901 1.55874 -2.12132 2.12132 
C -1.55874 2.683901 -0.795609 3 0 3 
z
" style="stroke: #008000"/>
    </defs>
    <g clip-path="url(#p19f7860f91)">
     <use xlink:href="#m74bdb8384f" x="303.241328" y="111.444818" style="fill: #008000; stroke: #008000"/>
     <use xlink:href="#m74bdb8384f" x="311.164954" y="96.521237" style="fill: #008000; stroke: #008000"/>
    </g>
   </g>
   <g id="line2d_14">
    <path d="M 275.325854 96.473565 
L 312.029527 94.371781 
" clip-path="url(#p19f7860f91)" style="fill: none; stroke: #008000; stroke-width: 1.5; stroke-linecap: square"/>
    <g clip-path="url(#p19f7860f91)">
     <use xlink:href="#m74bdb8384f" x="275.325854" y="96.473565" style="fill: #008000; stroke: #008000"/>
     <use xlink:href="#m74bdb8384f" x="312.029527" y="94.371781" style="fill: #008000; stroke: #008000"/>
    </g>
   </g>
   <g id="line2d_15">
    <path d="M 300.954132 111.747322 
L 318.37141 100.352453 
" clip-path="url(#p19f7860f91)" style="fill: none; stroke: #008000; stroke-width: 1.5; stroke-linecap: square"/>
    <g clip-path="url(#p19f7860f91)">
     <use xlink:href="#m74bdb8384f" x="300.954132" y="111.747322" style="fill: #008000; stroke: #008000"/>
     <use xlink:href="#m74bdb8384f" x="318.37141" y="100.352453" style="fill: #008000; stroke: #008000"/>
    </g>
   </g>
   <g id="line2d_16">
    <path d="M 287.221869 107.045611 
L 307.414093 111.129391 
" clip-path="url(#p19f7860f91)" style="fill: none; stroke: #008000; stroke-width: 1.5; stroke-linecap: square"/>
    <g clip-path="url(#p19f7860f91)">
     <use xlink:href="#m74bdb8384f" x="287.221869" y="107.045611" style="fill: #008000; stroke: #008000"/>
     <use xlink:href="#m74bdb8384f" x="307.414093" y="111.129391" style="fill: #008000; stroke: #008000"/>
    </g>
   </g>
   <g id="line2d_17">
    <path d="M 256.093684 99.533049 
L 321.136154 99.940752 
" clip-path="url(#p19f7860f91)" style="fill: none; stroke: #008000; stroke-width: 1.5; stroke-linecap: square"/>
    <g clip-path="url(#p19f7860f91)">
     <use xlink:href="#m74bdb8384f" x="256.093684" y="99.533049" style="fill: #008000; stroke: #008000"/>
     <use xlink:href="#m74bdb8384f" x="321.136154" y="99.940752" style="fill: #008000; stroke: #008000"/>
    </g>
   </g>
   <g id="line2d_18">
    <path d="M 296.525154 110.873525 
L 333.315285 95.541641 
" clip-path="url(#p19f7860f91)" style="fill: none; stroke: #008000; stroke-width: 1.5; stroke-linecap: square"/>
    <g clip-path="url(#p19f7860f91)">
     <use xlink:href="#m74bdb8384f" x="296.525154" y="110.873525" style="fill: #008000; stroke: #008000"/>
     <use xlink:href="#m74bdb8384f" x="333.315285" y="95.541641" style="fill: #008000; stroke: #008000"/>
    </g>
   </g>
   <g id="line2d_19">
    <path d="M 301.017362 111.565759 
L 317.953395 100.957681 
" clip-path="url(#p19f7860f91)" style="fill: none; stroke: #008000; stroke-width: 1.5; stroke-linecap: square"/>
    <g clip-path="url(#p19f7860f91)">
     <use xlink:href="#m74bdb8384f" x="301.017362" y="111.565759" style="fill: #008000; stroke: #008000"/>
     <use xlink:href="#m74bdb8384f" x="317.953395" y="100.957681" style="fill: #008000; stroke: #008000"/>
    </g>
   </g>
   <g id="line2d_20">
    <path d="M 286.981282 105.437304 
L 307.372837 111.323585 
" clip-path="url(#p19f7860f91)" style="fill: none; stroke: #008000; stroke-width: 1.5; stroke-linecap: square"/>
    <g clip-path="url(#p19f7860f91)">
     <use xlink:href="#m74bdb8384f" x="286.981282" y="105.437304" style="fill: #008000; stroke: #008000"/>
     <use xlink:href="#m74bdb8384f" x="307.372837" y="111.323585" style="fill: #008000; stroke: #008000"/>
    </g>
   </g>
   <g id="line2d_21">
    <path d="M 258.485575 99.710533 
L 320.250448 100.371699 
" clip-path="url(#p19f7860f91)" style="fill: none; stroke: #008000; stroke-width: 1.5; stroke-linecap: square"/>
    <g clip-path="url(#p19f7860f91)">
     <use xlink:href="#m74bdb8384f" x="258.485575" y="99.710533" style="fill: #008000; stroke: #008000"/>
     <use xlink:href="#m74bdb8384f" x="320.250448" y="100.371699" style="fill: #008000; stroke: #008000"/>
    </g>
   </g>
   <g id="line2d_22">
    <path d="M 291.567499 110.704315 
L 340.936828 94.670783 
" clip-path="url(#p19f7860f91)" style="fill: none; stroke: #008000; stroke-width: 1.5; stroke-linecap: square"/>
    <g clip-path="url(#p19f7860f91)">
     <use xlink:href="#m74bdb8384f" x="291.567499" y="110.704315" style="fill: #008000; stroke: #008000"/>
     <use xlink:href="#m74bdb8384f" x="340.936828" y="94.670783" style="fill: #008000; stroke: #008000"/>
    </g>
   </g>
   <g id="line2d_23">
    <path d="M 231.080973 212.338508 
L 328.606776 86.366581 
" clip-path="url(#p19f7860f91)" style="fill: none; stroke: #008000; stroke-width: 1.5; stroke-linecap: square"/>
    <g clip-path="url(#p19f7860f91)">
     <use xlink:href="#m74bdb8384f" x="231.080973" y="212.338508" style="fill: #008000; stroke: #008000"/>
     <use xlink:href="#m74bdb8384f" x="328.606776" y="86.366581" style="fill: #008000; stroke: #008000"/>
    </g>
   </g>
   <g id="line2d_24">
    <path d="M 310.386152 134.502838 
L 307.642484 111.516277 
" clip-path="url(#p19f7860f91)" style="fill: none; stroke: #008000; stroke-width: 1.5; stroke-linecap: square"/>
    <g clip-path="url(#p19f7860f91)">
     <use xlink:href="#m74bdb8384f" x="310.386152" y="134.502838" style="fill: #008000; stroke: #008000"/>
     <use xlink:href="#m74bdb8384f" x="307.642484" y="111.516277" style="fill: #008000; stroke: #008000"/>
    </g>
   </g>
   <g id="line2d_25">
    <path d="M 278.482006 163.198332 
L 326.849217 88.784363 
" clip-path="url(#p19f7860f91)" style="fill: none; stroke: #008000; stroke-width: 1.5; stroke-linecap: square"/>
    <g clip-path="url(#p19f7860f91)">
     <use xlink:href="#m74bdb8384f" x="278.482006" y="163.198332" style="fill: #008000; stroke: #008000"/>
     <use xlink:href="#m74bdb8384f" x="326.849217" y="88.784363" style="fill: #008000; stroke: #008000"/>
    </g>
   </g>
   <g id="line2d_26">
    <path d="M 263.805886 234.536198 
L 314.671927 77.47713 
" clip-path="url(#p19f7860f91)" style="fill: none; stroke: #008000; stroke-width: 1.5; stroke-linecap: square"/>
    <g clip-path="url(#p19f7860f91)">
     <use xlink:href="#m74bdb8384f" x="263.805886" y="234.536198" style="fill: #008000; stroke: #008000"/>
     <use xlink:href="#m74bdb8384f" x="314.671927" y="77.47713" style="fill: #008000; stroke: #008000"/>
    </g>
   </g>
   <g id="line2d_27">
    <path d="M 312.344992 180.880002 
L 311.801185 93.073802 
" clip-path="url(#p19f7860f91)" style="fill: none; stroke: #008000; stroke-width: 1.5; stroke-linecap: square"/>
    <g clip-path="url(#p19f7860f91)">
     <use xlink:href="#m74bdb8384f" x="312.344992" y="180.880002" style="fill: #008000; stroke: #008000"/>
     <use xlink:href="#m74bdb8384f" x="311.801185" y="93.073802" style="fill: #008000; stroke: #008000"/>
    </g>
   </g>
   <g id="line2d_28">
    <path d="M 74.093678 199.463718 
L 398.487273 91.577662 
" clip-path="url(#p19f7860f91)" style="fill: none; stroke: #008000; stroke-width: 1.5; stroke-linecap: square"/>
    <g clip-path="url(#p19f7860f91)">
     <use xlink:href="#m74bdb8384f" x="74.093678" y="199.463718" style="fill: #008000; stroke: #008000"/>
     <use xlink:href="#m74bdb8384f" x="398.487273" y="91.577662" style="fill: #008000; stroke: #008000"/>
    </g>
   </g>
   <g id="line2d_29">
    <path d="M 300.044835 146.589693 
L 308.28463 112.885552 
" clip-path="url(#p19f7860f91)" style="fill: none; stroke: #008000; stroke-width: 1.5; stroke-linecap: square"/>
    <g clip-path="url(#p19f7860f91)">
     <use xlink:href="#m74bdb8384f" x="300.044835" y="146.589693" style="fill: #008000; stroke: #008000"/>
     <use xlink:href="#m74bdb8384f" x="308.28463" y="112.885552" style="fill: #008000; stroke: #008000"/>
    </g>
   </g>
   <g id="line2d_30">
    <path d="M 314.772291 166.805673 
L 318.886462 99.590627 
" clip-path="url(#p19f7860f91)" style="fill: none; stroke: #008000; stroke-width: 1.5; stroke-linecap: square"/>
    <g clip-path="url(#p19f7860f91)">
     <use xlink:href="#m74bdb8384f" x="314.772291" y="166.805673" style="fill: #008000; stroke: #008000"/>
     <use xlink:href="#m74bdb8384f" x="318.886462" y="99.590627" style="fill: #008000; stroke: #008000"/>
    </g>
   </g>
   <g id="line2d_31">
    <path d="M 301.536675 110.876303 
L 321.981513 99.414446 
" clip-path="url(#p19f7860f91)" style="fill: none; stroke: #008000; stroke-width: 1.5; stroke-linecap: square"/>
    <g clip-path="url(#p19f7860f91)">
     <use xlink:href="#m74bdb8384f" x="301.536675" y="110.876303" style="fill: #008000; stroke: #008000"/>
     <use xlink:href="#m74bdb8384f" x="321.981513" y="99.414446" style="fill: #008000; stroke: #008000"/>
    </g>
   </g>
   <g id="line2d_32">
    <path d="M 284.869124 104.122297 
L 307.756624 111.757884 
" clip-path="url(#p19f7860f91)" style="fill: none; stroke: #008000; stroke-width: 1.5; stroke-linecap: square"/>
    <g clip-path="url(#p19f7860f91)">
     <use xlink:href="#m74bdb8384f" x="284.869124" y="104.122297" style="fill: #008000; stroke: #008000"/>
     <use xlink:href="#m74bdb8384f" x="307.756624" y="111.757884" style="fill: #008000; stroke: #008000"/>
    </g>
   </g>
   <g id="line2d_33">
    <path d="M 251.982131 98.982144 
L 322.836226 100.391055 
" clip-path="url(#p19f7860f91)" style="fill: none; stroke: #008000; stroke-width: 1.5; stroke-linecap: square"/>
    <g clip-path="url(#p19f7860f91)">
     <use xlink:href="#m74bdb8384f" x="251.982131" y="98.982144" style="fill: #008000; stroke: #008000"/>
     <use xlink:href="#m74bdb8384f" x="322.836226" y="100.391055" style="fill: #008000; stroke: #008000"/>
    </g>
   </g>
   <g id="line2d_34">
    <path d="M 281.630804 111.781912 
L 351.739641 93.940671 
" clip-path="url(#p19f7860f91)" style="fill: none; stroke: #008000; stroke-width: 1.5; stroke-linecap: square"/>
    <g clip-path="url(#p19f7860f91)">
     <use xlink:href="#m74bdb8384f" x="281.630804" y="111.781912" style="fill: #008000; stroke: #008000"/>
     <use xlink:href="#m74bdb8384f" x="351.739641" y="93.940671" style="fill: #008000; stroke: #008000"/>
    </g>
   </g>
   <g id="line2d_35">
    <path d="M 259.045302 254.759855 
L 316.936155 68.892766 
" clip-path="url(#p19f7860f91)" style="fill: none; stroke: #008000; stroke-width: 1.5; stroke-linecap: square"/>
    <g clip-path="url(#p19f7860f91)">
     <use xlink:href="#m74bdb8384f" x="259.045302" y="254.759855" style="fill: #008000; stroke: #008000"/>
     <use xlink:href="#m74bdb8384f" x="316.936155" y="68.892766" style="fill: #008000; stroke: #008000"/>
    </g>
   </g>
   <g id="line2d_36">
    <path d="M 312.506805 179.323735 
L 311.935958 93.228091 
" clip-path="url(#p19f7860f91)" style="fill: none; stroke: #008000; stroke-width: 1.5; stroke-linecap: square"/>
    <g clip-path="url(#p19f7860f91)">
     <use xlink:href="#m74bdb8384f" x="312.506805" y="179.323735" style="fill: #008000; stroke: #008000"/>
     <use xlink:href="#m74bdb8384f" x="311.935958" y="93.228091" style="fill: #008000; stroke: #008000"/>
    </g>
   </g>
   <g id="line2d_37">
    <path d="M 95.415097 207.092454 
L 385.782503 88.152525 
" clip-path="url(#p19f7860f91)" style="fill: none; stroke: #008000; stroke-width: 1.5; stroke-linecap: square"/>
    <g clip-path="url(#p19f7860f91)">
     <use xlink:href="#m74bdb8384f" x="95.415097" y="207.092454" style="fill: #008000; stroke: #008000"/>
     <use xlink:href="#m74bdb8384f" x="385.782503" y="88.152525" style="fill: #008000; stroke: #008000"/>
    </g>
   </g>
   <g id="line2d_38">
    <path d="M 300.165911 150.127951 
L 307.423575 111.414329 
" clip-path="url(#p19f7860f91)" style="fill: none; stroke: #008000; stroke-width: 1.5; stroke-linecap: square"/>
    <g clip-path="url(#p19f7860f91)">
     <use xlink:href="#m74bdb8384f" x="300.165911" y="150.127951" style="fill: #008000; stroke: #008000"/>
     <use xlink:href="#m74bdb8384f" x="307.423575" y="111.414329" style="fill: #008000; stroke: #008000"/>
    </g>
   </g>
   <g id="line2d_39">
    <path d="M 312.916603 169.067034 
L 318.550673 98.097302 
" clip-path="url(#p19f7860f91)" style="fill: none; stroke: #008000; stroke-width: 1.5; stroke-linecap: square"/>
    <g clip-path="url(#p19f7860f91)">
     <use xlink:href="#m74bdb8384f" x="312.916603" y="169.067034" style="fill: #008000; stroke: #008000"/>
     <use xlink:href="#m74bdb8384f" x="318.550673" y="98.097302" style="fill: #008000; stroke: #008000"/>
    </g>
   </g>
   <g id="line2d_40">
    <path d="M 122.097388 196.572404 
L 373.887955 92.374942 
" clip-path="url(#p19f7860f91)" style="fill: none; stroke: #008000; stroke-width: 1.5; stroke-linecap: square"/>
    <g clip-path="url(#p19f7860f91)">
     <use xlink:href="#m74bdb8384f" x="122.097388" y="196.572404" style="fill: #008000; stroke: #008000"/>
     <use xlink:href="#m74bdb8384f" x="373.887955" y="92.374942" style="fill: #008000; stroke: #008000"/>
    </g>
   </g>
   <g id="line2d_41">
    <path d="M 301.912217 151.581442 
L 307.592365 111.800998 
" clip-path="url(#p19f7860f91)" style="fill: none; stroke: #008000; stroke-width: 1.5; stroke-linecap: square"/>
    <g clip-path="url(#p19f7860f91)">
     <use xlink:href="#m74bdb8384f" x="301.912217" y="151.581442" style="fill: #008000; stroke: #008000"/>
     <use xlink:href="#m74bdb8384f" x="307.592365" y="111.800998" style="fill: #008000; stroke: #008000"/>
    </g>
   </g>
   <g id="line2d_42">
    <path d="M 313.4777 166.002181 
L 317.959184 99.705 
" clip-path="url(#p19f7860f91)" style="fill: none; stroke: #008000; stroke-width: 1.5; stroke-linecap: square"/>
    <g clip-path="url(#p19f7860f91)">
     <use xlink:href="#m74bdb8384f" x="313.4777" y="166.002181" style="fill: #008000; stroke: #008000"/>
     <use xlink:href="#m74bdb8384f" x="317.959184" y="99.705" style="fill: #008000; stroke: #008000"/>
    </g>
   </g>
   <g id="line2d_43">
    <path d="M 120.23616 196.919141 
L 373.823809 92.343636 
" clip-path="url(#p19f7860f91)" style="fill: none; stroke: #008000; stroke-width: 1.5; stroke-linecap: square"/>
    <g clip-path="url(#p19f7860f91)">
     <use xlink:href="#m74bdb8384f" x="120.23616" y="196.919141" style="fill: #008000; stroke: #008000"/>
     <use xlink:href="#m74bdb8384f" x="373.823809" y="92.343636" style="fill: #008000; stroke: #008000"/>
    </g>
   </g>
   <g id="line2d_44">
    <path d="M 302.77163 151.305362 
L 308.290377 112.688801 
" clip-path="url(#p19f7860f91)" style="fill: none; stroke: #008000; stroke-width: 1.5; stroke-linecap: square"/>
    <g clip-path="url(#p19f7860f91)">
     <use xlink:href="#m74bdb8384f" x="302.77163" y="151.305362" style="fill: #008000; stroke: #008000"/>
     <use xlink:href="#m74bdb8384f" x="308.290377" y="112.688801" style="fill: #008000; stroke: #008000"/>
    </g>
   </g>
   <g id="line2d_45">
    <path d="M 312.921579 164.896379 
L 318.030387 100.387259 
" clip-path="url(#p19f7860f91)" style="fill: none; stroke: #008000; stroke-width: 1.5; stroke-linecap: square"/>
    <g clip-path="url(#p19f7860f91)">
     <use xlink:href="#m74bdb8384f" x="312.921579" y="164.896379" style="fill: #008000; stroke: #008000"/>
     <use xlink:href="#m74bdb8384f" x="318.030387" y="100.387259" style="fill: #008000; stroke: #008000"/>
    </g>
   </g>
   <g id="line2d_46">
    <path d="M 204.969382 210.393324 
L 339.810515 87.406893 
" clip-path="url(#p19f7860f91)" style="fill: none; stroke: #008000; stroke-width: 1.5; stroke-linecap: square"/>
    <g clip-path="url(#p19f7860f91)">
     <use xlink:href="#m74bdb8384f" x="204.969382" y="210.393324" style="fill: #008000; stroke: #008000"/>
     <use xlink:href="#m74bdb8384f" x="339.810515" y="87.406893" style="fill: #008000; stroke: #008000"/>
    </g>
   </g>
   <g id="line2d_47">
    <path d="M 310.073613 137.554925 
L 307.457916 112.217965 
" clip-path="url(#p19f7860f91)" style="fill: none; stroke: #008000; stroke-width: 1.5; stroke-linecap: square"/>
    <g clip-path="url(#p19f7860f91)">
     <use xlink:href="#m74bdb8384f" x="310.073613" y="137.554925" style="fill: #008000; stroke: #008000"/>
     <use xlink:href="#m74bdb8384f" x="307.457916" y="112.217965" style="fill: #008000; stroke: #008000"/>
    </g>
   </g>
   <g id="line2d_48">
    <path d="M 279.918458 159.954005 
L 328.453046 91.580924 
" clip-path="url(#p19f7860f91)" style="fill: none; stroke: #008000; stroke-width: 1.5; stroke-linecap: square"/>
    <g clip-path="url(#p19f7860f91)">
     <use xlink:href="#m74bdb8384f" x="279.918458" y="159.954005" style="fill: #008000; stroke: #008000"/>
     <use xlink:href="#m74bdb8384f" x="328.453046" y="91.580924" style="fill: #008000; stroke: #008000"/>
    </g>
   </g>
   <g id="line2d_49">
    <path d="M 264.469645 295.488 
L 314.486792 53.568 
" clip-path="url(#p19f7860f91)" style="fill: none; stroke: #008000; stroke-width: 1.5; stroke-linecap: square"/>
    <g clip-path="url(#p19f7860f91)">
     <use xlink:href="#m74bdb8384f" x="264.469645" y="295.488" style="fill: #008000; stroke: #008000"/>
     <use xlink:href="#m74bdb8384f" x="314.486792" y="53.568" style="fill: #008000; stroke: #008000"/>
    </g>
   </g>
   <g id="line2d_50">
    <path d="M 292.99046 205.972035 
L 314.370838 60.59773 
" clip-path="url(#p19f7860f91)" style="fill: none; stroke: #008000; stroke-width: 1.5; stroke-linecap: square"/>
    <g clip-path="url(#p19f7860f91)">
     <use xlink:href="#m74bdb8384f" x="292.99046" y="205.972035" style="fill: #008000; stroke: #008000"/>
     <use xlink:href="#m74bdb8384f" x="314.370838" y="60.59773" style="fill: #008000; stroke: #008000"/>
    </g>
   </g>
   <g id="line2d_51">
    <path d="M 73.832727 208.67922 
L 398.439894 87.585255 
" clip-path="url(#p19f7860f91)" style="fill: none; stroke: #008000; stroke-width: 1.5; stroke-linecap: square"/>
    <g clip-path="url(#p19f7860f91)">
     <use xlink:href="#m74bdb8384f" x="73.832727" y="208.67922" style="fill: #008000; stroke: #008000"/>
     <use xlink:href="#m74bdb8384f" x="398.439894" y="87.585255" style="fill: #008000; stroke: #008000"/>
    </g>
   </g>
   <g id="line2d_52">
    <path d="M 300.398214 151.912674 
L 308.130538 111.683488 
" clip-path="url(#p19f7860f91)" style="fill: none; stroke: #008000; stroke-width: 1.5; stroke-linecap: square"/>
    <g clip-path="url(#p19f7860f91)">
     <use xlink:href="#m74bdb8384f" x="300.398214" y="151.912674" style="fill: #008000; stroke: #008000"/>
     <use xlink:href="#m74bdb8384f" x="308.130538" y="111.683488" style="fill: #008000; stroke: #008000"/>
    </g>
   </g>
   <g id="line2d_53">
    <path d="M 313.828654 168.297473 
L 317.92539 98.491644 
" clip-path="url(#p19f7860f91)" style="fill: none; stroke: #008000; stroke-width: 1.5; stroke-linecap: square"/>
    <g clip-path="url(#p19f7860f91)">
     <use xlink:href="#m74bdb8384f" x="313.828654" y="168.297473" style="fill: #008000; stroke: #008000"/>
     <use xlink:href="#m74bdb8384f" x="317.92539" y="98.491644" style="fill: #008000; stroke: #008000"/>
    </g>
   </g>
   <g id="line2d_54">
    <path d="M 307.271388 116.740486 
L 311.525472 95.5163 
" clip-path="url(#p19f7860f91)" style="fill: none; stroke: #008000; stroke-width: 1.5; stroke-linecap: square"/>
    <g clip-path="url(#p19f7860f91)">
     <use xlink:href="#m74bdb8384f" x="307.271388" y="116.740486" style="fill: #008000; stroke: #008000"/>
     <use xlink:href="#m74bdb8384f" x="311.525472" y="95.5163" style="fill: #008000; stroke: #008000"/>
    </g>
   </g>
   <g id="line2d_55">
    <path d="M 276.290772 157.284829 
L 315.673992 81.939146 
" clip-path="url(#p19f7860f91)" style="fill: none; stroke: #008000; stroke-width: 1.5; stroke-linecap: square"/>
    <g clip-path="url(#p19f7860f91)">
     <use xlink:href="#m74bdb8384f" x="276.290772" y="157.284829" style="fill: #008000; stroke: #008000"/>
     <use xlink:href="#m74bdb8384f" x="315.673992" y="81.939146" style="fill: #008000; stroke: #008000"/>
    </g>
   </g>
   <g id="line2d_56">
    <path d="M 307.633495 116.758802 
L 311.507471 94.638708 
" clip-path="url(#p19f7860f91)" style="fill: none; stroke: #008000; stroke-width: 1.5; stroke-linecap: square"/>
    <g clip-path="url(#p19f7860f91)">
     <use xlink:href="#m74bdb8384f" x="307.633495" y="116.758802" style="fill: #008000; stroke: #008000"/>
     <use xlink:href="#m74bdb8384f" x="311.507471" y="94.638708" style="fill: #008000; stroke: #008000"/>
    </g>
   </g>
   <g id="line2d_57">
    <path d="M 272.765708 168.829322 
L 316.724334 75.606756 
" clip-path="url(#p19f7860f91)" style="fill: none; stroke: #008000; stroke-width: 1.5; stroke-linecap: square"/>
    <g clip-path="url(#p19f7860f91)">
     <use xlink:href="#m74bdb8384f" x="272.765708" y="168.829322" style="fill: #008000; stroke: #008000"/>
     <use xlink:href="#m74bdb8384f" x="316.724334" y="75.606756" style="fill: #008000; stroke: #008000"/>
    </g>
   </g>
   <g id="line2d_58">
    <path d="M 131.42502 200.706709 
L 369.449693 90.938483 
" clip-path="url(#p19f7860f91)" style="fill: none; stroke: #008000; stroke-width: 1.5; stroke-linecap: square"/>
    <g clip-path="url(#p19f7860f91)">
     <use xlink:href="#m74bdb8384f" x="131.42502" y="200.706709" style="fill: #008000; stroke: #008000"/>
     <use xlink:href="#m74bdb8384f" x="369.449693" y="90.938483" style="fill: #008000; stroke: #008000"/>
    </g>
   </g>
   <g id="line2d_59">
    <path d="M 301.45967 148.863129 
L 307.605486 112.000899 
" clip-path="url(#p19f7860f91)" style="fill: none; stroke: #008000; stroke-width: 1.5; stroke-linecap: square"/>
    <g clip-path="url(#p19f7860f91)">
     <use xlink:href="#m74bdb8384f" x="301.45967" y="148.863129" style="fill: #008000; stroke: #008000"/>
     <use xlink:href="#m74bdb8384f" x="307.605486" y="112.000899" style="fill: #008000; stroke: #008000"/>
    </g>
   </g>
   <g id="line2d_60">
    <path d="M 313.043868 166.735811 
L 317.746039 99.503402 
" clip-path="url(#p19f7860f91)" style="fill: none; stroke: #008000; stroke-width: 1.5; stroke-linecap: square"/>
    <g clip-path="url(#p19f7860f91)">
     <use xlink:href="#m74bdb8384f" x="313.043868" y="166.735811" style="fill: #008000; stroke: #008000"/>
     <use xlink:href="#m74bdb8384f" x="317.746039" y="99.503402" style="fill: #008000; stroke: #008000"/>
    </g>
   </g>
   <g id="line2d_61">
    <path d="M 256.050708 276.262707 
L 318.181821 60.576332 
" clip-path="url(#p19f7860f91)" style="fill: none; stroke: #008000; stroke-width: 1.5; stroke-linecap: square"/>
    <g clip-path="url(#p19f7860f91)">
     <use xlink:href="#m74bdb8384f" x="256.050708" y="276.262707" style="fill: #008000; stroke: #008000"/>
     <use xlink:href="#m74bdb8384f" x="318.181821" y="60.576332" style="fill: #008000; stroke: #008000"/>
    </g>
   </g>
   <g id="line2d_62">
    <path d="M 311.865092 180.146772 
L 311.673337 92.86892 
" clip-path="url(#p19f7860f91)" style="fill: none; stroke: #008000; stroke-width: 1.5; stroke-linecap: square"/>
    <g clip-path="url(#p19f7860f91)">
     <use xlink:href="#m74bdb8384f" x="311.865092" y="180.146772" style="fill: #008000; stroke: #008000"/>
     <use xlink:href="#m74bdb8384f" x="311.673337" y="92.86892" style="fill: #008000; stroke: #008000"/>
    </g>
   </g>
   <g id="line2d_63">
    <path d="M 85.697258 199.448852 
L 389.237276 91.223143 
" clip-path="url(#p19f7860f91)" style="fill: none; stroke: #008000; stroke-width: 1.5; stroke-linecap: square"/>
    <g clip-path="url(#p19f7860f91)">
     <use xlink:href="#m74bdb8384f" x="85.697258" y="199.448852" style="fill: #008000; stroke: #008000"/>
     <use xlink:href="#m74bdb8384f" x="389.237276" y="91.223143" style="fill: #008000; stroke: #008000"/>
    </g>
   </g>
   <g id="line2d_64">
    <path d="M 300.803911 147.971354 
L 307.742908 112.479423 
" clip-path="url(#p19f7860f91)" style="fill: none; stroke: #008000; stroke-width: 1.5; stroke-linecap: square"/>
    <g clip-path="url(#p19f7860f91)">
     <use xlink:href="#m74bdb8384f" x="300.803911" y="147.971354" style="fill: #008000; stroke: #008000"/>
     <use xlink:href="#m74bdb8384f" x="307.742908" y="112.479423" style="fill: #008000; stroke: #008000"/>
    </g>
   </g>
   <g id="line2d_65">
    <path d="M 313.029174 165.745269 
L 318.597048 99.86069 
" clip-path="url(#p19f7860f91)" style="fill: none; stroke: #008000; stroke-width: 1.5; stroke-linecap: square"/>
    <g clip-path="url(#p19f7860f91)">
     <use xlink:href="#m74bdb8384f" x="313.029174" y="165.745269" style="fill: #008000; stroke: #008000"/>
     <use xlink:href="#m74bdb8384f" x="318.597048" y="99.86069" style="fill: #008000; stroke: #008000"/>
    </g>
   </g>
   <g id="line2d_66">
    <path d="M 263.695903 282.438702 
L 314.947628 58.933385 
" clip-path="url(#p19f7860f91)" style="fill: none; stroke: #008000; stroke-width: 1.5; stroke-linecap: square"/>
    <g clip-path="url(#p19f7860f91)">
     <use xlink:href="#m74bdb8384f" x="263.695903" y="282.438702" style="fill: #008000; stroke: #008000"/>
     <use xlink:href="#m74bdb8384f" x="314.947628" y="58.933385" style="fill: #008000; stroke: #008000"/>
    </g>
   </g>
   <g id="line2d_67">
    <path d="M 296.543757 173.514264 
L 311.786238 81.600248 
" clip-path="url(#p19f7860f91)" style="fill: none; stroke: #008000; stroke-width: 1.5; stroke-linecap: square"/>
    <g clip-path="url(#p19f7860f91)">
     <use xlink:href="#m74bdb8384f" x="296.543757" y="173.514264" style="fill: #008000; stroke: #008000"/>
     <use xlink:href="#m74bdb8384f" x="311.786238" y="81.600248" style="fill: #008000; stroke: #008000"/>
    </g>
   </g>
   <g id="patch_3">
    <path d="M 57.6 307.584 
L 57.6 41.472 
" style="fill: none; stroke: #000000; stroke-width: 0.8; stroke-linejoin: miter; stroke-linecap: square"/>
   </g>
   <g id="patch_4">
    <path d="M 414.72 307.584 
L 414.72 41.472 
" style="fill: none; stroke: #000000; stroke-width: 0.8; stroke-linejoin: miter; stroke-linecap: square"/>
   </g>
   <g id="patch_5">
    <path d="M 57.6 307.584 
L 414.72 307.584 
" style="fill: none; stroke: #000000; stroke-width: 0.8; stroke-linejoin: miter; stroke-linecap: square"/>
   </g>
   <g id="patch_6">
    <path d="M 57.6 41.472 
L 414.72 41.472 
" style="fill: none; stroke: #000000; stroke-width: 0.8; stroke-linejoin: miter; stroke-linecap: square"/>
   </g>
   <g id="text_15">
    <!-- 2D Plot of Line Segments -->
    <g transform="translate(160.3725 35.472) scale(0.12 -0.12)">
     <defs>
      <path id="DejaVuSans-44" d="M 1259 4147 
L 1259 519 
L 2022 519 
Q 2988 519 3436 956 
Q 3884 1394 3884 2338 
Q 3884 3275 3436 3711 
Q 2988 4147 2022 4147 
L 1259 4147 
z
M 628 4666 
L 1925 4666 
Q 3281 4666 3915 4102 
Q 4550 3538 4550 2338 
Q 4550 1131 3912 565 
Q 3275 0 1925 0 
L 628 0 
L 628 4666 
z
" transform="scale(0.015625)"/>
      <path id="DejaVuSans-50" d="M 1259 4147 
L 1259 2394 
L 2053 2394 
Q 2494 2394 2734 2622 
Q 2975 2850 2975 3272 
Q 2975 3691 2734 3919 
Q 2494 4147 2053 4147 
L 1259 4147 
z
M 628 4666 
L 2053 4666 
Q 2838 4666 3239 4311 
Q 3641 3956 3641 3272 
Q 3641 2581 3239 2228 
Q 2838 1875 2053 1875 
L 1259 1875 
L 1259 0 
L 628 0 
L 628 4666 
z
" transform="scale(0.015625)"/>
      <path id="DejaVuSans-6c" d="M 603 4863 
L 1178 4863 
L 1178 0 
L 603 0 
L 603 4863 
z
" transform="scale(0.015625)"/>
      <path id="DejaVuSans-66" d="M 2375 4863 
L 2375 4384 
L 1825 4384 
Q 1516 4384 1395 4259 
Q 1275 4134 1275 3809 
L 1275 3500 
L 2222 3500 
L 2222 3053 
L 1275 3053 
L 1275 0 
L 697 0 
L 697 3053 
L 147 3053 
L 147 3500 
L 697 3500 
L 697 3744 
Q 697 4328 969 4595 
Q 1241 4863 1831 4863 
L 2375 4863 
z
" transform="scale(0.015625)"/>
      <path id="DejaVuSans-4c" d="M 628 4666 
L 1259 4666 
L 1259 531 
L 3531 531 
L 3531 0 
L 628 0 
L 628 4666 
z
" transform="scale(0.015625)"/>
      <path id="DejaVuSans-53" d="M 3425 4513 
L 3425 3897 
Q 3066 4069 2747 4153 
Q 2428 4238 2131 4238 
Q 1616 4238 1336 4038 
Q 1056 3838 1056 3469 
Q 1056 3159 1242 3001 
Q 1428 2844 1947 2747 
L 2328 2669 
Q 3034 2534 3370 2195 
Q 3706 1856 3706 1288 
Q 3706 609 3251 259 
Q 2797 -91 1919 -91 
Q 1588 -91 1214 -16 
Q 841 59 441 206 
L 441 856 
Q 825 641 1194 531 
Q 1563 422 1919 422 
Q 2459 422 2753 634 
Q 3047 847 3047 1241 
Q 3047 1584 2836 1778 
Q 2625 1972 2144 2069 
L 1759 2144 
Q 1053 2284 737 2584 
Q 422 2884 422 3419 
Q 422 4038 858 4394 
Q 1294 4750 2059 4750 
Q 2388 4750 2728 4690 
Q 3069 4631 3425 4513 
z
" transform="scale(0.015625)"/>
      <path id="DejaVuSans-67" d="M 2906 1791 
Q 2906 2416 2648 2759 
Q 2391 3103 1925 3103 
Q 1463 3103 1205 2759 
Q 947 2416 947 1791 
Q 947 1169 1205 825 
Q 1463 481 1925 481 
Q 2391 481 2648 825 
Q 2906 1169 2906 1791 
z
M 3481 434 
Q 3481 -459 3084 -895 
Q 2688 -1331 1869 -1331 
Q 1566 -1331 1297 -1286 
Q 1028 -1241 775 -1147 
L 775 -588 
Q 1028 -725 1275 -790 
Q 1522 -856 1778 -856 
Q 2344 -856 2625 -561 
Q 2906 -266 2906 331 
L 2906 616 
Q 2728 306 2450 153 
Q 2172 0 1784 0 
Q 1141 0 747 490 
Q 353 981 353 1791 
Q 353 2603 747 3093 
Q 1141 3584 1784 3584 
Q 2172 3584 2450 3431 
Q 2728 3278 2906 2969 
L 2906 3500 
L 3481 3500 
L 3481 434 
z
" transform="scale(0.015625)"/>
      <path id="DejaVuSans-6d" d="M 3328 2828 
Q 3544 3216 3844 3400 
Q 4144 3584 4550 3584 
Q 5097 3584 5394 3201 
Q 5691 2819 5691 2113 
L 5691 0 
L 5113 0 
L 5113 2094 
Q 5113 2597 4934 2840 
Q 4756 3084 4391 3084 
Q 3944 3084 3684 2787 
Q 3425 2491 3425 1978 
L 3425 0 
L 2847 0 
L 2847 2094 
Q 2847 2600 2669 2842 
Q 2491 3084 2119 3084 
Q 1678 3084 1418 2786 
Q 1159 2488 1159 1978 
L 1159 0 
L 581 0 
L 581 3500 
L 1159 3500 
L 1159 2956 
Q 1356 3278 1631 3431 
Q 1906 3584 2284 3584 
Q 2666 3584 2933 3390 
Q 3200 3197 3328 2828 
z
" transform="scale(0.015625)"/>
      <path id="DejaVuSans-73" d="M 2834 3397 
L 2834 2853 
Q 2591 2978 2328 3040 
Q 2066 3103 1784 3103 
Q 1356 3103 1142 2972 
Q 928 2841 928 2578 
Q 928 2378 1081 2264 
Q 1234 2150 1697 2047 
L 1894 2003 
Q 2506 1872 2764 1633 
Q 3022 1394 3022 966 
Q 3022 478 2636 193 
Q 2250 -91 1575 -91 
Q 1294 -91 989 -36 
Q 684 19 347 128 
L 347 722 
Q 666 556 975 473 
Q 1284 391 1588 391 
Q 1994 391 2212 530 
Q 2431 669 2431 922 
Q 2431 1156 2273 1281 
Q 2116 1406 1581 1522 
L 1381 1569 
Q 847 1681 609 1914 
Q 372 2147 372 2553 
Q 372 3047 722 3315 
Q 1072 3584 1716 3584 
Q 2034 3584 2315 3537 
Q 2597 3491 2834 3397 
z
" transform="scale(0.015625)"/>
     </defs>
     <use xlink:href="#DejaVuSans-32"/>
     <use xlink:href="#DejaVuSans-44" x="63.623047"/>
     <use xlink:href="#DejaVuSans-20" x="140.625"/>
     <use xlink:href="#DejaVuSans-50" x="172.412109"/>
     <use xlink:href="#DejaVuSans-6c" x="232.714844"/>
     <use xlink:href="#DejaVuSans-6f" x="260.498047"/>
     <use xlink:href="#DejaVuSans-74" x="321.679688"/>
     <use xlink:href="#DejaVuSans-20" x="360.888672"/>
     <use xlink:href="#DejaVuSans-6f" x="392.675781"/>
     <use xlink:href="#DejaVuSans-66" x="453.857422"/>
     <use xlink:href="#DejaVuSans-20" x="489.0625"/>
     <use xlink:href="#DejaVuSans-4c" x="520.849609"/>
     <use xlink:href="#DejaVuSans-69" x="576.5625"/>
     <use xlink:href="#DejaVuSans-6e" x="604.345703"/>
     <use xlink:href="#DejaVuSans-65" x="667.724609"/>
     <use xlink:href="#DejaVuSans-20" x="729.248047"/>
     <use xlink:href="#DejaVuSans-53" x="761.035156"/>
     <use xlink:href="#DejaVuSans-65" x="824.511719"/>
     <use xlink:href="#DejaVuSans-67" x="886.035156"/>
     <use xlink:href="#DejaVuSans-6d" x="949.511719"/>
     <use xlink:href="#DejaVuSans-65" x="1046.923828"/>
     <use xlink:href="#DejaVuSans-6e" x="1108.447266"/>
     <use xlink:href="#DejaVuSans-74" x="1171.826172"/>
     <use xlink:href="#DejaVuSans-73" x="1211.035156"/>
    </g>
   </g>
  </g>
 </g>
 <defs>
  <clipPath id="p19f7860f91">
   <rect x="57.6" y="41.472" width="357.12" height="266.112"/>
  </clipPath>
 </defs>
</svg>
